<svg xmlns="http://www.w3.org/2000/svg" width="623" height="271" viewBox="0 0 623 271" version="1.1"><path d="M 112 2.416 C 100.615 4.208, 93.020 6.287, 82.784 10.413 C 67.172 16.707, 48.158 30.230, 37.365 42.715 C 34.139 46.447, 31.239 49.725, 30.919 50 C 29.043 51.616, 19.583 66.868, 15.595 74.706 C 6.168 93.235, 1.956 109.809, 1.245 131.182 C 0.876 142.260, 1.176 148.372, 2.466 156.087 C 13.690 223.214, 76.590 269.770, 151.885 266.681 C 185.892 265.286, 217.202 253.298, 254 227.581 C 271.697 215.213, 294.484 196.158, 313.605 177.737 C 321.710 169.928, 321.710 169.928, 329.469 178.714 C 337.875 188.233, 360.730 211.690, 370.689 221.019 C 406.042 254.139, 446.520 270.286, 494.500 270.406 C 527.855 270.490, 557.031 258.635, 580.562 235.434 C 591.641 224.511, 594.501 221.005, 601.721 209.500 C 634.557 157.176, 629.225 92.585, 588.568 50.154 C 572.022 32.886, 554.768 22.113, 529 12.960 C 509.654 6.089, 476.160 3.545, 455 7.341 C 408.416 15.697, 363.493 44.106, 308.082 100.253 C 301.418 107.006, 301.418 107.006, 291.359 95.753 C 285.826 89.564, 278.603 81.350, 275.307 77.500 C 262.834 62.931, 240.918 43.804, 222.992 31.844 C 189.356 9.401, 144.008 -2.622, 112 2.416 M 477.821 49.424 C 452.884 53.859, 425.848 69.053, 395 95.970 C 384.183 105.409, 340 148.863, 340 150.063 C 340 150.433, 344.699 155.246, 350.443 160.759 C 384.388 193.337, 417.031 212.012, 454.446 220.258 C 463.350 222.220, 467.302 222.469, 489 222.433 C 510.512 222.398, 514.709 222.124, 523.413 220.186 C 556.645 212.786, 581.966 197.330, 596.343 175.670 C 604.378 163.566, 608 151.062, 608 135.430 C 608 113.024, 600.713 96.475, 583.758 80.374 C 567.578 65.008, 549.396 55.954, 524.738 50.985 C 511.444 48.305, 488.419 47.539, 477.821 49.424 M 113 49.693 C 98.188 51.272, 77.691 57.119, 65.500 63.242 C 50.178 70.938, 34.866 83.855, 27.765 95.077 C 23.547 101.742, 18.590 113.706, 17.108 120.799 C 15.534 128.330, 15.763 145.369, 17.539 152.905 C 26.855 192.424, 69.762 221.059, 123.500 223.620 C 144.092 224.602, 158.296 221.484, 178.500 211.548 C 199.558 201.193, 214.992 190.146, 243 165.385 C 261.372 149.142, 284 127.308, 284 125.823 C 284 124.234, 258.501 99.544, 248.973 91.907 C 220.088 68.755, 190.018 55.079, 157.994 50.528 C 148.455 49.172, 122.416 48.689, 113 49.693" stroke="none" fill="#656565" fill-rule="evenodd"/></svg>