<svg xmlns="http://www.w3.org/2000/svg" width="128" height="128" viewBox="0 0 128 128" version="1.1"><path d="M 49.106 35.372 C 48.301 36.343, 48.046 44.862, 48.234 64.513 C 48.475 89.701, 48.663 92.386, 50.250 93.386 C 51.526 94.191, 52.474 94.191, 53.750 93.386 C 55.337 92.386, 55.525 89.701, 55.766 64.513 C 56.041 35.834, 55.814 34, 52 34 C 51.035 34, 49.733 34.617, 49.106 35.372 M 73.106 35.372 C 72.301 36.343, 72.046 44.862, 72.234 64.513 C 72.475 89.701, 72.663 92.386, 74.250 93.386 C 75.526 94.191, 76.474 94.191, 77.750 93.386 C 79.337 92.386, 79.525 89.701, 79.766 64.513 C 80.041 35.834, 79.814 34, 76 34 C 75.035 34, 73.733 34.617, 73.106 35.372" stroke="none" fill="#fffcfc" fill-rule="evenodd"/><path d="" stroke="none" fill="#fcfcfc" fill-rule="evenodd"/></svg>