<svg xmlns="http://www.w3.org/2000/svg" width="1200" height="1200" viewBox="0 0 1200 1200" version="1.1"><path d="M 662.801 3.932 L 658.102 8.080 652.858 15.290 L 647.614 22.500 643.178 30.838 L 638.743 39.176 634.886 50.715 L 631.030 62.254 627.489 68.587 L 623.947 74.920 617.673 81.287 L 611.399 87.655 605.449 91.689 L 599.500 95.723 593.984 98.662 L 588.468 101.600 581.827 104.259 L 575.185 106.918 566.342 109.391 L 557.500 111.865 548.500 113.646 L 539.500 115.427 517 115.409 L 494.500 115.391 484.927 113.266 L 475.354 111.140 468.927 109.011 L 462.500 106.882 454.315 102.868 L 446.129 98.853 439.384 92.677 L 432.638 86.500 427.448 78.459 L 422.257 70.417 416.493 63.622 L 410.728 56.827 403.494 50.664 L 396.259 44.500 389.902 40.750 L 383.546 37 381.278 37 L 379.010 37 367.501 41.606 L 355.991 46.212 340.246 53.945 L 324.500 61.678 310.500 69.484 L 296.500 77.289 281.500 86.291 L 266.500 95.292 252.500 104.814 L 238.500 114.336 231.167 119.852 L 223.834 125.367 224.463 132.434 L 225.092 139.500 226.634 151 L 228.176 162.500 229.668 168 L 231.160 173.500 232.789 178 L 234.419 182.500 237.733 188.682 L 241.047 194.863 243.023 202.592 L 245 210.320 245 218.029 L 245 225.738 243.537 234.129 L 242.074 242.519 239.472 250.510 L 236.871 258.500 233.284 266.500 L 229.698 274.500 223.696 284.500 L 217.694 294.500 212.147 302 L 206.599 309.500 194.550 321.506 L 182.500 333.512 173.970 339.201 L 165.440 344.889 157.970 348.429 L 150.500 351.968 142.590 353.984 L 134.680 356 126.971 356 L 119.261 356 107.194 353.500 L 95.127 351 82.814 351.016 L 70.500 351.031 61.500 352.936 L 52.500 354.840 47.647 356.670 L 42.794 358.500 39.481 366.735 L 36.168 374.970 32.697 385.235 L 29.225 395.500 27.137 402.500 L 25.049 409.500 22.553 418 L 20.057 426.500 14.667 448 L 9.277 469.500 7.680 476.500 L 6.083 483.500 4.460 492.500 L 2.838 501.500 1.426 510.500 L 0.014 519.500 0.007 526.215 L 0 532.930 3.250 536.646 L 6.500 540.361 14.157 546.047 L 21.814 551.734 32.657 557.247 L 43.500 562.760 55 566.471 L 66.500 570.181 74.543 574.094 L 82.585 578.007 90.831 584.605 L 99.078 591.203 104.547 597.972 L 110.016 604.741 114.852 613.144 L 119.687 621.547 121.959 627.524 L 124.230 633.500 126.653 643 L 129.076 652.500 130.015 663.500 L 130.954 674.500 130.388 683 L 129.822 691.500 128.394 699.448 L 126.967 707.396 124.877 714.448 L 122.786 721.500 118.061 731.500 L 113.335 741.500 107.120 749.714 L 100.905 757.928 95.703 762.523 L 90.500 767.119 81.500 772.698 L 72.500 778.278 66.266 783.213 L 60.031 788.147 53.235 795.523 L 46.440 802.898 42.110 811.024 L 37.780 819.150 38.348 821.992 L 38.917 824.833 44.063 837.166 L 49.209 849.500 57.779 866.500 L 66.350 883.500 71.828 893 L 77.307 902.500 79.259 906 L 81.212 909.500 88.315 921 L 95.418 932.500 102.808 943.433 L 110.199 954.367 116.261 962.433 L 122.323 970.500 124.911 973.750 L 127.500 977 138.685 977 L 149.869 977 157.185 975.479 L 164.500 973.957 169.500 972.366 L 174.500 970.774 189 963.963 L 203.500 957.152 211.208 955.576 L 218.916 954 225.788 954 L 232.661 954 243.081 955.882 L 253.500 957.764 261.500 960.464 L 269.500 963.165 279.500 967.990 L 289.500 972.814 297.500 978.041 L 305.500 983.267 313.033 989.538 L 320.565 995.810 327.588 1003.203 L 334.611 1010.597 339.200 1017.048 L 343.789 1023.500 347.347 1030 L 350.905 1036.500 353.496 1043.387 L 356.086 1050.275 357.543 1057.887 L 359 1065.500 359 1071.199 L 359 1076.898 356.500 1089.197 L 354 1101.497 354.033 1115.498 L 354.065 1129.500 355.822 1141.352 L 357.580 1153.204 361.040 1154.687 L 364.500 1156.170 382.500 1162.978 L 400.500 1169.786 414 1174.271 L 427.500 1178.756 435 1180.989 L 442.500 1183.222 447 1184.577 L 451.500 1185.933 467.500 1189.915 L 483.500 1193.897 497.500 1196.485 L 511.500 1199.072 524.798 1199.692 L 538.095 1200.313 542.091 1196.411 L 546.087 1192.510 551.548 1184.386 L 557.009 1176.263 560.408 1168.882 L 563.807 1161.500 567.038 1151 L 570.268 1140.500 572.757 1135.541 L 575.245 1130.583 579.013 1125.483 L 582.780 1120.383 588.140 1115.561 L 593.500 1110.739 599.441 1106.703 L 605.382 1102.666 614.941 1097.947 L 624.500 1093.228 634 1090.211 L 643.500 1087.193 653 1085.191 L 662.500 1083.189 676.294 1081.940 L 690.088 1080.691 703.022 1081.927 L 715.956 1083.162 725.728 1085.556 L 735.500 1087.949 745.719 1092.999 L 755.938 1098.048 762.046 1103.703 L 768.154 1109.358 776.810 1122.429 L 785.467 1135.500 793.483 1143.873 L 801.500 1152.246 807.627 1156.623 L 813.754 1161 815.832 1161 L 817.909 1161 828.798 1157.116 L 839.686 1153.232 850.593 1148.500 L 861.500 1143.768 878 1135.533 L 894.500 1127.299 907.395 1120.065 L 920.291 1112.832 928.395 1107.783 L 936.500 1102.734 947.500 1095.244 L 958.500 1087.753 965.500 1082.155 L 972.500 1076.558 977.250 1072.142 L 982 1067.726 981.999 1062.613 L 981.997 1057.500 980.579 1049.500 L 979.160 1041.500 976.484 1034 L 973.807 1026.500 966.802 1013.141 L 959.797 999.783 957.813 993.141 L 955.830 986.500 955.317 974.500 L 954.804 962.500 956.913 952.288 L 959.023 942.075 962.068 933.788 L 965.113 925.500 969.686 917 L 974.258 908.500 980.379 899.509 L 986.500 890.518 997.180 879.470 L 1007.859 868.423 1015.721 862.762 L 1023.582 857.102 1032.041 852.626 L 1040.500 848.150 1048.500 845.612 L 1056.500 843.073 1064.500 842.279 L 1072.500 841.485 1079.419 842.176 L 1086.338 842.867 1093.419 844.684 L 1100.500 846.500 1119 846.348 L 1137.500 846.196 1144.966 844.332 L 1152.432 842.467 1155.772 833.984 L 1159.113 825.500 1164.136 812 L 1169.160 798.500 1173.955 784 L 1178.750 769.500 1180.986 762 L 1183.222 754.500 1184.573 750 L 1185.924 745.500 1187.894 738 L 1189.864 730.500 1192.466 719.172 L 1195.069 707.843 1197.066 696.672 L 1199.063 685.500 1199.669 674.989 L 1200.274 664.477 1191.794 656.489 L 1183.313 648.500 1175.148 643.607 L 1166.982 638.715 1153.241 634.013 L 1139.500 629.311 1136 627.519 L 1132.500 625.726 1128.500 622.676 L 1124.500 619.625 1120.869 615.856 L 1117.238 612.088 1112.512 605.465 L 1107.787 598.843 1102.957 588.603 L 1098.127 578.364 1095.078 568.102 L 1092.030 557.841 1089.779 546.670 L 1087.528 535.500 1087.530 511.500 L 1087.532 487.500 1089.380 479 L 1091.229 470.500 1094.038 462.233 L 1096.847 453.966 1100.393 447.625 L 1103.939 441.284 1108.485 436.227 L 1113.032 431.171 1123.266 424.466 L 1133.500 417.761 1143.137 407.995 L 1152.774 398.230 1156.887 391.307 L 1161 384.384 1161 383.097 L 1161 381.811 1157.374 371.155 L 1153.749 360.500 1148.814 349.500 L 1143.880 338.500 1136.072 323.420 L 1128.265 308.340 1119 292.920 L 1109.736 277.500 1100.103 263 L 1090.470 248.500 1081.485 236.629 L 1072.500 224.758 1071.279 223.227 L 1070.057 221.696 1059.009 222.367 L 1047.961 223.038 1041.730 224.487 L 1035.500 225.936 1029.064 228.053 L 1022.627 230.170 1012.064 235.423 L 1001.500 240.677 996.500 242.088 L 991.500 243.500 979 243.461 L 966.500 243.421 959.322 241.715 L 952.143 240.009 944.822 237.398 L 937.500 234.786 927.729 229.928 L 917.957 225.069 910.729 220.407 L 903.500 215.745 895 208.967 L 886.500 202.189 878.406 193.845 L 870.312 185.500 864.084 177.066 L 857.856 168.633 852.961 158.566 L 848.067 148.500 846.502 142.500 L 844.938 136.500 844.335 128.933 L 843.732 121.367 846.095 110.933 L 848.459 100.500 848.442 83.500 L 848.425 66.500 846.604 58 L 844.783 49.500 843.926 47.881 L 843.070 46.262 831.285 41.215 L 819.500 36.167 812 33.522 L 804.500 30.877 800.500 29.487 L 796.500 28.098 785 24.492 L 773.500 20.885 766 18.862 L 758.500 16.840 745 13.462 L 731.500 10.084 719.293 7.578 L 707.086 5.072 694.793 3.075 L 682.500 1.077 675 0.430 L 667.500 -0.217 662.801 3.932 M 575 278.494 L 564.500 279.719 554.865 281.387 L 545.230 283.054 533.216 285.987 L 521.201 288.921 508.851 293.045 L 496.500 297.170 488.063 300.657 L 479.626 304.145 467.563 310.176 L 455.500 316.207 448.500 320.271 L 441.500 324.334 432.500 330.351 L 423.500 336.367 417 341.346 L 410.500 346.324 402.500 353.059 L 394.500 359.794 380.988 373.647 L 367.477 387.500 360.697 396 L 353.918 404.500 346.141 416 L 338.364 427.500 334.161 434.711 L 329.958 441.921 324.559 452.711 L 319.161 463.500 314.672 474.500 L 310.184 485.500 306.725 496 L 303.265 506.500 300.143 519 L 297.021 531.500 295.003 543.500 L 292.984 555.500 291.875 568 L 290.766 580.500 291.290 604.500 L 291.815 628.500 294.481 644.500 L 297.148 660.500 299.637 670.500 L 302.125 680.500 304.670 689 L 307.214 697.500 312.727 711.500 L 318.240 725.500 324.069 737.133 L 329.899 748.767 335.126 757.633 L 340.354 766.500 345.833 774.500 L 351.312 782.500 358.901 792.500 L 366.490 802.500 383.495 819.612 L 400.500 836.723 410.504 844.612 L 420.509 852.500 431.021 859.641 L 441.533 866.783 453.517 873.491 L 465.500 880.199 476.307 885.138 L 487.115 890.078 498.807 894.409 L 510.500 898.741 519.500 901.331 L 528.500 903.920 537 905.951 L 545.500 907.981 557.500 909.999 L 569.500 912.016 582 913.125 L 594.500 914.234 618.500 913.657 L 642.500 913.080 655 911.095 L 667.500 909.111 672.618 908.106 L 677.735 907.102 687.791 904.553 L 697.846 902.004 708.673 898.422 L 719.500 894.840 730.123 890.491 L 740.746 886.143 753.097 879.951 L 765.448 873.760 778.016 865.953 L 790.583 858.145 800.042 850.921 L 809.500 843.697 818 836.478 L 826.500 829.259 838.500 816.878 L 850.500 804.498 856.725 796.721 L 862.949 788.945 869.837 779.222 L 876.725 769.500 881.001 762.507 L 885.276 755.514 891.599 743.498 L 897.922 731.482 902.550 720.491 L 907.179 709.500 911.524 696.500 L 915.869 683.500 918.949 671 L 922.029 658.500 923.534 649.500 L 925.040 640.500 926.518 627 L 927.996 613.500 927.998 595.357 L 928 577.214 926.532 563.307 L 925.065 549.401 924.113 544.450 L 923.161 539.500 921.938 533 L 920.716 526.500 917.902 515.473 L 915.088 504.446 911.494 493.973 L 907.900 483.500 903.788 473.500 L 899.675 463.500 892.241 449 L 884.806 434.500 875.464 420.377 L 866.121 406.254 857.989 396.048 L 849.858 385.841 838.679 374.285 L 827.500 362.729 816.628 353.371 L 805.756 344.013 796.106 337.076 L 786.456 330.139 775.478 323.409 L 764.500 316.680 749.690 309.420 L 734.879 302.160 725.690 298.705 L 716.500 295.251 712 293.702 L 707.500 292.152 699 289.663 L 690.500 287.173 682 285.096 L 673.500 283.019 664.500 281.447 L 655.500 279.876 643 278.457 L 630.500 277.039 608 277.153 L 585.500 277.268 575 278.494" stroke="none" fill="#fffcfc" fill-rule="evenodd"/><path d="" stroke="none" fill="#fcfcfc" fill-rule="evenodd"/></svg>